<svg xmlns="http://www.w3.org/2000/svg" xmlns:xlink="http://www.w3.org/1999/xlink"
	 viewBox="0 0 512 512" width="200px" height="200px">
	<g>
		<path d="M503.551,402.086h-11.359l-101.634-144.94c-1.582-2.255-4.163-3.598-6.918-3.598c-2.755,0-5.337,1.343-6.918,3.598
			l-27.068,38.6l-80.019-172.493c-1.385-2.984-4.376-4.894-7.665-4.894s-6.281,1.91-7.665,4.894l-70.65,152.321l-42.437-91.487
			c-1.385-2.984-4.374-4.894-7.665-4.894c-3.29,0-6.281,1.91-7.665,4.894l-101.121,218H8.449c-4.666,0-8.449,3.783-8.449,8.449
			c0,4.666,3.783,8.449,8.449,8.449h495.102c4.666,0,8.449-3.783,8.449-8.449C512,405.87,508.217,402.086,503.551,402.086z
			 M383.64,276.714l8.278,11.804l-10.004,9.289l-7.952-7.29L383.64,276.714z M261.971,146.889l27.122,58.467l-10.265-7.602
			c-3.168-2.346-7.536-2.19-10.528,0.375l-25.627,21.966l-5.757-19.189L261.971,146.889z M133.553,207.723l14.737,31.77
			l-18.691,12.682l-13.428-6.982L133.553,207.723z M43.394,402.088l65.66-141.549l17.222,8.955c1.226,0.638,2.563,0.953,3.897,0.953
			c1.663,0,3.319-0.49,4.744-1.458l20.578-13.963l18.846,40.63l-8.4,18.11l-8.856-6.396c-1.985-1.433-4.495-1.935-6.877-1.377
			c-2.384,0.559-4.407,2.125-5.547,4.291l-48.317,91.803H43.394z M115.44,402.084l39.642-75.319l22.526,16.27
			c3.783,2.732,9.063,1.879,11.796-1.903c2.732-3.783,1.88-9.064-1.903-11.796l-7.607-5.494l46.309-99.841l4.016,13.386
			c0.821,2.738,2.972,4.875,5.714,5.68c0.783,0.23,1.583,0.341,2.378,0.341c1.992,0,3.947-0.704,5.499-2.035l30.372-26.034
			l29.77,22.048l52.145,112.408l-4.178,3.018c-3.783,2.732-4.635,8.013-1.903,11.796s8.012,4.635,11.796,1.903l12.921-9.331
			l23.633,44.903H115.44z M417.464,402.087L385.155,340.7c-1.14-2.166-3.163-3.731-5.547-4.291c-2.384-0.56-4.892-0.057-6.877,1.377
			l-2.679,1.934l-12.182-26.259l6.304-8.99l12.066,11.061c1.615,1.48,3.662,2.221,5.708,2.221c2.065,0,4.129-0.753,5.749-2.258
			l14.012-13.01l69.843,99.602H417.464z" fill="#61DAFB"/>
	</g>
	<g>
		<path d="M329.932,325.045l-11.829-18.587c-1.377-2.162-3.659-3.582-6.206-3.863c-2.549-0.281-5.084,0.612-6.897,2.424
			l-0.544,0.544l-20.969-61.507c-1.505-4.416-6.307-6.776-10.724-5.271c-4.417,1.506-6.777,6.307-5.271,10.724l25.349,74.351
			c0.941,2.762,3.241,4.843,6.083,5.503c2.842,0.661,5.824-0.192,7.887-2.255l2.69-2.69l6.174,9.701
			c1.611,2.53,4.344,3.914,7.137,3.914c1.551,0,3.122-0.427,4.528-1.323C331.277,334.204,332.438,328.982,329.932,325.045z" fill="#61DAFB"/>
	</g>
	<g>
		<path d="M242.538,285.691c-4.647-0.468-8.784,2.923-9.248,7.567l-6.759,67.591c-0.464,4.643,2.923,8.783,7.567,9.247
			c0.285,0.028,0.569,0.043,0.851,0.043c4.288,0,7.961-3.251,8.397-7.609l6.759-67.591
			C250.569,290.295,247.181,286.155,242.538,285.691z" fill="#61DAFB"/>
	</g>

	<g>
		<path d="M122.122,296.679c-4.172-2.085-9.248-0.395-11.336,3.779L88.82,344.392c-2.088,4.174-0.395,9.249,3.779,11.336
			c1.212,0.607,2.502,0.894,3.772,0.894c3.099,0,6.083-1.712,7.564-4.673l21.967-43.934
			C127.988,303.841,126.296,298.766,122.122,296.679z" fill="#61DAFB"/>
	</g>

</svg>
